<?xml version="1.0" encoding="utf-8"?>
<!-- Generator: Adobe Illustrator 27.9.0, SVG Export Plug-In . SVG Version: 6.00 Build 0)  -->
<svg version="1.1" id="Layer_1" xmlns="http://www.w3.org/2000/svg" xmlns:xlink="http://www.w3.org/1999/xlink" x="0px" y="0px"
	 viewBox="0 0 1366 768" style="enable-background:new 0 0 1366 768;" xml:space="preserve">
<style type="text/css">
	.st0{fill:#A82929;}
	.st1{font-family:'PalatinoLinotype-Bold';}
	.st2{font-size:60.4932px;}
	.st3{fill:#3A3F4F;}
	.st4{font-family:'Montserrat-Bold';}
	.st5{font-size:35.4239px;}
	.st6{letter-spacing:4;}
	.st7{fill:#FFFFFF;}
</style>
<g>
	<g>
		<text transform="matrix(1 0 0 1 307.3262 605.7539)"><tspan x="0" y="0" class="st0 st1 st2">Гимназия с преподаване </tspan><tspan x="141.38" y="69.13" class="st0 st1 st2">на чужди езици</tspan></text>
	</g>
	<g>
		<text transform="matrix(1 0 0 1 546.853 741.1445)" class="st3 st4 st5 st6">ПЕТЪР БОГДАН</text>
	</g>
	<g>
		<g>
			<path class="st3" d="M807.97,402l-49.78,20.12l-59.89,24.19c-0.02,0.01-0.05,0.02-0.07,0.03l-0.32,0.13
				c-0.16,0.06-0.32,0.11-0.48,0.17c-0.48,0.18-0.95,0.35-1.44,0.5c-0.27,0.09-0.55,0.15-0.82,0.22c-0.41,0.11-0.82,0.21-1.24,0.3
				c-0.32,0.06-0.65,0.11-0.97,0.16c-0.38,0.06-0.75,0.11-1.13,0.15c-0.35,0.03-0.7,0.05-1.05,0.07c-0.36,0.02-0.72,0.04-1.08,0.04
				h-0.01c-0.61,0-1.22-0.03-1.83-0.08c-0.1-0.01-0.19-0.01-0.28-0.02c-0.53-0.05-1.07-0.14-1.6-0.22
				c-0.17-0.03-0.35-0.05-0.52-0.09c-0.07-0.01-0.15-0.04-0.22-0.05c-0.4-0.08-0.8-0.18-1.2-0.29c-0.22-0.05-0.43-0.11-0.64-0.17
				c-0.49-0.14-0.96-0.32-1.43-0.5c-0.16-0.06-0.33-0.1-0.49-0.17l-165.66-66.93c-11.21-4.53-17.29-17.19-12.96-28.49
				c4.4-11.51,17.37-17.12,28.75-12.52l147.23,59.49l2.47,1c5.39,2.17,11.41,2.17,16.79,0l133.1-53.78l27.74-11.21
				c3.3-1.31,2.98-5.16,0.2-6.65l-153.47-69.2c-10.15-4.58-21.78-4.58-31.93,0l-160.5,72.37c-7.95,2.83-14.48,8.91-17.77,17.07
				c-6.22,15.39,1.24,32.97,16.64,39.2l165.6,66.91c1.95,0.84,4.01,1.49,6.13,1.9c0.13,0.03,0.27,0.05,0.4,0.07
				c0.73,0.13,1.46,0.24,2.2,0.32c0.22,0.02,0.43,0.05,0.65,0.07c0.87,0.07,1.75,0.12,2.64,0.12h0h0c3.87,0,7.66-0.74,11.27-2.2
				l151.7-61.27c7.35-2.97,8.62-5.63,8.62-12.26L807.97,402z M689.69,393.62l0.01-0.01L689.69,393.62L689.69,393.62L689.69,393.62z
				 M515.75,329.77c-0.06,0.01-0.12,0.03-0.18,0.05C515.63,329.81,515.68,329.79,515.75,329.77 M520.86,328.9
				c-0.17,0.01-0.34,0.04-0.51,0.06C520.52,328.93,520.68,328.91,520.86,328.9 M518.31,329.22c-0.13,0.02-0.26,0.05-0.39,0.07
				C518.05,329.27,518.18,329.24,518.31,329.22"/>
			<path class="st3" d="M689.68,437.78c-2.35,0-4.69-0.34-7.01-1.03c-0.08-0.02-0.16-0.05-0.23-0.08l-159.68-64.62
				c-1.3-0.52-1.93-2.01-1.4-3.31c0.53-1.3,2.01-1.93,3.31-1.4l159.56,64.57c3.67,1.06,7.24,1.05,10.94,0l154.06-62.12
				c1.3-0.53,2.78,0.1,3.31,1.41c0.53,1.3-0.11,2.78-1.41,3.31l-154.18,62.17c-0.08,0.03-0.16,0.06-0.24,0.08
				C694.37,437.43,692.02,437.78,689.68,437.78"/>
			<path class="st3" d="M689.68,420.05c-2.34,0-4.69-0.34-7.01-1.03c-0.08-0.02-0.16-0.05-0.23-0.08l-159.68-64.62
				c-1.3-0.53-1.93-2.01-1.4-3.31c0.53-1.3,2.01-1.93,3.31-1.41l159.56,64.57c3.67,1.06,7.25,1.06,10.94,0l154.06-62.12
				c1.3-0.53,2.78,0.11,3.31,1.41c0.53,1.3-0.11,2.79-1.41,3.31l-154.18,62.17c-0.08,0.03-0.16,0.06-0.24,0.08
				C694.37,419.71,692.03,420.05,689.68,420.05"/>
			<path class="st3" d="M677.23,176.65l-125.66,57.38c-3.16,1.45-3.16,5.94,0,7.38l125.66,57.38c3.8,1.73,8.16,1.73,11.96,0
				l125.66-57.38c3.16-1.44,3.16-5.93,0-7.38l-125.66-57.38C685.39,174.92,681.03,174.92,677.23,176.65"/>
			<path class="st7" d="M682.54,366.71c-55.26,0-96.94-18.81-96.94-43.75v-65.19l88.49,40.41c2.88,1.31,5.95,1.98,9.12,1.98
				c3.17,0,6.24-0.67,9.13-1.98l87.14-39.79v64.58C779.48,347.9,737.8,366.71,682.54,366.71"/>
			<path class="st3" d="M695.26,304.58c-3.81,1.74-7.87,2.62-12.05,2.62c-4.19,0-8.25-0.88-12.05-2.62l-78.51-35.85v54.23
				c0,20.27,40.25,36.7,89.89,36.7c49.65,0,89.89-16.43,89.89-36.7v-53.61L695.26,304.58z"/>
		</g>
		<g>
			<path class="st3" d="M506.59,150.13c-10.57,8.94-12.96,23.49-12.96,23.49s14.75,0.07,25.32-8.87
				c10.57-8.94,12.96-23.49,12.96-23.49S517.16,141.19,506.59,150.13"/>
			<path class="st3" d="M565.55,496.28c8.37,11.62,8.4,24.97,8.28,25.01c0.02,0.17-18.28-5.7-26.1-18.46
				c-7.84-12.6-3.32-25.19-3.44-25.16C544.33,477.79,557.18,484.76,565.55,496.28"/>
			<path class="st3" d="M551.12,534.88c16.34-2.15,22.85-14.19,22.85-14.08c-0.19,0.05-17.4-5.62-32.45-4.42
				c-15.21,1.28-24.45,10.34-24.46,10.44C516.84,526.85,534.61,537.08,551.12,534.88"/>
			<path class="st3" d="M533.99,480.97c5.58,12.61,2.92,25.46,2.81,25.48c0.01,0.17-15.94-8.51-20.92-22.15
				c-4.99-13.49,1.69-24.9,1.58-24.89C517.49,459.54,528.4,468.47,533.99,480.97"/>
			<path class="st3" d="M512.83,515.8c15.78,0.64,24.22-9.9,24.2-9.79c-0.18,0.02-15.14-8.3-29.65-9.67
				c-14.66-1.33-25.24,5.87-25.26,5.97C481.91,502.31,496.88,515.18,512.83,515.8"/>
			<path class="st3" d="M507,460.86c2.94,13.14-2.08,25.11-2.19,25.11c-0.01,0.17-13.54-10.91-15.8-24.98
				c-2.3-13.92,6.22-23.84,6.12-23.84C495.13,437.28,504.04,447.82,507,460.86"/>
			<path class="st3" d="M480.17,490.94c14.96,3.29,24.98-5.47,24.95-5.37c-0.16-0.01-12.8-10.57-26.52-14.39
				c-13.86-3.8-25.42,1.35-25.44,1.45C452.96,472.61,465.05,487.65,480.17,490.94"/>
			<path class="st3" d="M484.75,436.74c0.46,13.26-6.61,23.98-6.7,23.97c-0.03,0.17-11.05-12.9-10.76-26.97
				c0.24-13.93,10.26-22.1,10.16-22.12C477.43,411.75,484.25,423.58,484.75,436.74"/>
			<path class="st3" d="M453.33,461.28c13.87,5.78,25.12-1,25.08-0.91c-0.15-0.03-10.4-12.44-23.06-18.54
				c-12.79-6.1-24.96-3.12-25-3.03C430.18,438.75,439.31,455.49,453.33,461.28"/>
			<path class="st3" d="M467.4,409.4c-1.85,13-10.64,22.18-10.72,22.15c-0.05,0.16-8.49-14.47-5.81-28.15
				c2.62-13.55,13.78-19.77,13.69-19.8C464.53,383.72,469.2,396.49,467.4,409.4"/>
			<path class="st3" d="M432.51,427.79c12.52,8.06,24.63,3.42,24.58,3.51c-0.13-0.05-7.93-13.92-19.26-22.1
				c-11.45-8.21-23.87-7.46-23.92-7.38C413.75,401.74,419.84,419.69,432.51,427.79"/>
			<path class="st3" d="M455.12,379.64c-4,12.39-14.15,19.79-14.23,19.75c-0.08,0.15-5.84-15.63-0.94-28.56
				c4.83-12.81,16.79-16.94,16.71-16.99C456.61,353.96,459.06,367.34,455.12,379.64"/>
			<path class="st3" d="M417.88,391.43c10.89,10.09,23.51,7.7,23.45,7.78c-0.12-0.07-5.39-14.99-15.12-25.04
				c-9.84-10.08-22.12-11.57-22.18-11.5C403.89,362.58,406.86,381.27,417.88,391.43"/>
			<path class="st3" d="M448.07,348.26c-5.98,11.46-17.16,16.9-17.23,16.85c-0.09,0.13-3.12-16.38,3.85-28.24
				c6.86-11.75,19.27-13.69,19.2-13.75C453.81,323.23,453.97,336.88,448.07,348.26"/>
			<path class="st3" d="M409.64,353.19c8.98,11.86,21.74,11.76,21.66,11.83c-0.1-0.09-2.78-15.67-10.63-27.31
				c-7.95-11.69-19.72-15.37-19.79-15.31C400.76,322.28,400.54,341.24,409.64,353.19"/>
			<path class="st3" d="M446.41,316.07c-7.78,10.25-19.63,13.6-19.69,13.54c-0.12,0.12-0.31-16.71,8.53-27.21
				c8.72-10.41,21.21-10.11,21.14-10.18C456.3,292.31,454.1,305.88,446.41,316.07"/>
			<path class="st3" d="M407.98,314.04c6.79,13.32,19.3,15.5,19.21,15.56c-0.09-0.1-0.1-15.94-5.79-28.88
				c-5.77-13-16.64-18.77-16.73-18.72C404.57,281.87,401.07,300.62,407.98,314.04"/>
			<path class="st3" d="M450.32,283.88c-9.41,8.79-21.56,9.98-21.61,9.9c-0.14,0.1,2.58-16.61,13.11-25.49
				c10.41-8.81,22.6-6.31,22.54-6.39C464.24,261.98,459.61,275.14,450.32,283.88"/>
			<path class="st3" d="M413.07,274.98c4.31,14.44,16.19,18.83,16.09,18.88c-0.06-0.12,2.65-15.82-0.6-29.73
				c-3.32-13.98-12.87-21.67-12.97-21.63C415.51,242.35,408.66,260.43,413.07,274.98"/>
			<path class="st3" d="M459.95,252.48c-10.85,7.11-22.94,6.12-22.98,6.04c-0.16,0.08,5.55-16.11,17.6-23.14
				c11.91-6.99,23.42-2.35,23.38-2.44C477.8,233,470.67,245.41,459.95,252.48"/>
			<path class="st3" d="M425.12,236.98c1.54,15.19,12.4,21.67,12.28,21.7c-0.04-0.12,5.46-15.3,4.96-29.8
				c-0.57-14.59-8.42-23.99-8.53-23.97C433.77,204.75,423.49,221.67,425.12,236.98"/>
			<path class="st3" d="M475.48,222.71c-12.09,5.25-23.76,2.12-23.79,2.03c-0.18,0.06,8.6-15.18,21.98-20.18
				c13.22-4.98,23.66,1.66,23.63,1.57C497.13,206.17,487.43,217.47,475.48,222.71"/>
			<path class="st3" d="M444.31,201.05c-1.53,15.52,7.9,23.92,7.78,23.93c-0.03-0.13,8.34-14.38,10.88-29.08
				c2.48-14.79-3.24-25.64-3.37-25.63C459.54,170.1,445.76,185.39,444.31,201.05"/>
			<path class="st3" d="M497.07,195.37c-13.15,3.24-24-1.94-24.02-2.03c-0.2,0.03,11.72-13.82,26.24-16.65
				c14.34-2.82,23.32,5.65,23.3,5.56C522.4,182.27,510.06,192.12,497.07,195.37"/>
			<path class="st3" d="M470.84,168.16c-4.9,15.41,2.69,25.5,2.56,25.49c-0.01-0.13,11.29-13.07,17.17-27.53
				c5.82-14.56,2.64-26.53,2.51-26.54C493.03,139.41,475.66,152.6,470.84,168.16"/>
			<path class="st3" d="M625.71,527.33l-0.15-2.86c-23.73,1.25-47.21-2.27-69.78-10.46c-22-7.99-42.18-20.05-60.01-35.85
				c-36.98-32.79-59.91-78.47-64.56-128.61c-3.81-41.06,0.3-77.37,12.22-107.91c12.79-32.8,34.33-58.04,64.01-75l-1.43-2.49
				c-30.26,17.3-52.22,43.02-65.26,76.45c-12.08,30.97-16.25,67.71-12.4,109.22c4.72,50.87,27.98,97.21,65.52,130.49
				c18.09,16.04,38.59,28.29,60.93,36.4C577.73,525.02,601.58,528.6,625.71,527.33"/>
		</g>
		<g>
			<path class="st3" d="M859.83,150.13c10.57,8.94,12.96,23.49,12.96,23.49s-14.75,0.07-25.32-8.87
				c-10.57-8.94-12.96-23.49-12.96-23.49S849.26,141.19,859.83,150.13"/>
			<path class="st3" d="M800.87,496.28c-8.37,11.62-8.4,24.97-8.28,25.01c-0.02,0.17,18.28-5.7,26.1-18.46
				c7.84-12.6,3.32-25.19,3.44-25.16C822.09,477.79,809.24,484.76,800.87,496.28"/>
			<path class="st3" d="M815.3,534.88c-16.34-2.15-22.85-14.19-22.85-14.08c0.19,0.05,17.4-5.62,32.45-4.42
				c15.21,1.28,24.45,10.34,24.46,10.44C849.57,526.85,831.81,537.08,815.3,534.88"/>
			<path class="st3" d="M832.43,480.97c-5.58,12.61-2.92,25.46-2.81,25.48c-0.01,0.17,15.94-8.51,20.91-22.15
				c4.99-13.49-1.69-24.9-1.58-24.89C848.93,459.54,838.02,468.47,832.43,480.97"/>
			<path class="st3" d="M853.59,515.8c-15.78,0.64-24.22-9.9-24.2-9.79c0.18,0.02,15.13-8.3,29.65-9.67
				c14.66-1.33,25.24,5.87,25.26,5.97C884.51,502.31,869.54,515.18,853.59,515.8"/>
			<path class="st3" d="M859.42,460.86c-2.94,13.14,2.08,25.11,2.19,25.11c0.01,0.17,13.54-10.91,15.8-24.98
				c2.3-13.92-6.22-23.84-6.12-23.84C871.29,437.28,862.38,447.82,859.42,460.86"/>
			<path class="st3" d="M886.25,490.94c-14.96,3.29-24.98-5.47-24.95-5.37c0.16-0.01,12.8-10.57,26.52-14.39
				c13.86-3.8,25.42,1.35,25.44,1.45C913.46,472.61,901.37,487.65,886.25,490.94"/>
			<path class="st3" d="M881.67,436.74c-0.46,13.26,6.61,23.98,6.7,23.97c0.03,0.17,11.05-12.9,10.76-26.97
				c-0.24-13.93-10.26-22.1-10.16-22.12C888.99,411.75,882.16,423.58,881.67,436.74"/>
			<path class="st3" d="M913.09,461.28c-13.87,5.78-25.12-1-25.08-0.91c0.15-0.03,10.4-12.44,23.06-18.54
				c12.79-6.1,24.96-3.12,25-3.03C936.24,438.75,927.11,455.49,913.09,461.28"/>
			<path class="st3" d="M899.02,409.4c1.85,13,10.64,22.18,10.72,22.15c0.05,0.16,8.49-14.47,5.81-28.15
				c-2.62-13.55-13.78-19.77-13.69-19.8C901.89,383.72,897.21,396.49,899.02,409.4"/>
			<path class="st3" d="M933.91,427.79c-12.52,8.06-24.63,3.42-24.58,3.51c0.13-0.05,7.93-13.92,19.26-22.1
				c11.45-8.21,23.87-7.46,23.92-7.38C952.66,401.74,946.58,419.69,933.91,427.79"/>
			<path class="st3" d="M911.3,379.64c4,12.39,14.16,19.79,14.23,19.75c0.08,0.15,5.84-15.63,0.94-28.56
				c-4.82-12.81-16.79-16.94-16.71-16.99C909.81,353.96,907.36,367.34,911.3,379.64"/>
			<path class="st3" d="M948.54,391.43c-10.89,10.09-23.51,7.7-23.45,7.78c0.12-0.07,5.39-14.99,15.12-25.04
				c9.84-10.08,22.12-11.57,22.18-11.5C962.53,362.58,959.56,381.27,948.54,391.43"/>
			<path class="st3" d="M918.35,348.26c5.98,11.46,17.16,16.9,17.23,16.85c0.09,0.13,3.12-16.38-3.85-28.24
				c-6.86-11.75-19.27-13.69-19.2-13.75C912.61,323.23,912.45,336.88,918.35,348.26"/>
			<path class="st3" d="M956.78,353.19c-8.98,11.86-21.74,11.76-21.66,11.83c0.1-0.09,2.78-15.67,10.63-27.31
				c7.95-11.69,19.72-15.37,19.79-15.31C965.66,322.28,965.88,341.24,956.78,353.19"/>
			<path class="st3" d="M920.01,316.07c7.78,10.25,19.63,13.6,19.69,13.54c0.12,0.12,0.31-16.71-8.53-27.21
				c-8.72-10.41-21.21-10.11-21.14-10.18C910.12,292.31,912.32,305.88,920.01,316.07"/>
			<path class="st3" d="M958.44,314.04c-6.79,13.32-19.3,15.5-19.21,15.56c0.09-0.1,0.1-15.94,5.79-28.88
				c5.77-13,16.64-18.77,16.73-18.72C961.85,281.87,965.35,300.62,958.44,314.04"/>
			<path class="st3" d="M916.1,283.88c9.41,8.79,21.56,9.98,21.61,9.9c0.14,0.1-2.58-16.61-13.11-25.49
				c-10.41-8.81-22.6-6.31-22.54-6.39C902.18,261.98,906.81,275.14,916.1,283.88"/>
			<path class="st3" d="M953.34,274.98c-4.31,14.44-16.19,18.83-16.09,18.88c0.06-0.12-2.65-15.82,0.6-29.73
				c3.32-13.98,12.87-21.67,12.97-21.63C950.91,242.35,957.76,260.43,953.34,274.98"/>
			<path class="st3" d="M906.47,252.48c10.85,7.11,22.94,6.12,22.98,6.04c0.16,0.08-5.55-16.11-17.6-23.14
				c-11.91-6.99-23.42-2.35-23.38-2.44C888.62,233,895.75,245.41,906.47,252.48"/>
			<path class="st3" d="M941.29,236.98c-1.54,15.19-12.39,21.67-12.28,21.7c0.04-0.12-5.46-15.3-4.96-29.8
				c0.57-14.59,8.42-23.99,8.53-23.97C932.65,204.75,942.93,221.67,941.29,236.98"/>
			<path class="st3" d="M890.94,222.71c12.09,5.25,23.76,2.12,23.79,2.03c0.18,0.06-8.6-15.18-21.98-20.18
				c-13.22-4.98-23.67,1.66-23.63,1.57C869.29,206.17,878.99,217.47,890.94,222.71"/>
			<path class="st3" d="M922.11,201.05c1.53,15.52-7.9,23.92-7.78,23.93c0.03-0.13-8.34-14.38-10.87-29.08
				c-2.48-14.79,3.24-25.64,3.37-25.63C906.88,170.1,920.66,185.39,922.11,201.05"/>
			<path class="st3" d="M869.35,195.37c13.15,3.24,24-1.94,24.02-2.03c0.2,0.03-11.72-13.82-26.24-16.65
				c-14.34-2.82-23.32,5.65-23.3,5.56C844.02,182.27,856.36,192.12,869.35,195.37"/>
			<path class="st3" d="M895.58,168.16c4.9,15.41-2.69,25.5-2.56,25.49c0.01-0.13-11.29-13.07-17.17-27.53
				c-5.82-14.56-2.64-26.53-2.51-26.54C873.39,139.41,890.76,152.6,895.58,168.16"/>
			<path class="st3" d="M740.71,527.33l0.15-2.86c23.73,1.25,47.21-2.27,69.78-10.46c22-7.99,42.18-20.05,60.01-35.85
				c36.98-32.79,59.91-78.47,64.56-128.61c3.81-41.06-0.3-77.37-12.22-107.91c-12.79-32.8-34.33-58.04-64.01-75l1.43-2.49
				c30.26,17.3,52.22,43.02,65.26,76.45c12.08,30.97,16.25,67.71,12.4,109.22c-4.72,50.87-27.98,97.21-65.52,130.49
				c-18.09,16.04-38.59,28.29-60.93,36.4C788.69,525.02,764.83,528.6,740.71,527.33"/>
		</g>
		<g>
			<polygon class="st3" points="686.32,43 698.51,67.72 725.79,71.68 706.06,90.92 710.71,118.09 686.32,105.26 661.91,118.09 
				666.58,90.92 646.84,71.68 674.12,67.72 			"/>
			<polygon class="st3" points="592.36,89.01 601.37,107.27 621.52,110.2 606.94,124.41 610.38,144.48 592.36,135.01 574.34,144.48 
				577.78,124.41 563.2,110.2 583.35,107.27 			"/>
			<polygon class="st3" points="780.27,89.01 789.28,107.27 809.43,110.2 794.85,124.41 798.29,144.48 780.27,135.01 762.25,144.48 
				765.69,124.41 751.11,110.2 771.26,107.27 			"/>
		</g>
	</g>
</g>
</svg>
