<?xml version="1.0" encoding="utf-8"?>
<!-- Generator: Adobe Illustrator 27.9.0, SVG Export Plug-In . SVG Version: 6.00 Build 0)  -->
<svg version="1.1" xmlns="http://www.w3.org/2000/svg" xmlns:xlink="http://www.w3.org/1999/xlink" x="0px" y="0px"
	 viewBox="0 0 500 500" style="enable-background:new 0 0 500 500;" xml:space="preserve">
<style type="text/css">
	.st0{fill:#FFFC9C;}
	.st1{fill:#FFFFFF;}
	.st2{fill:#292B41;}
	.st3{fill:none;stroke:#292B41;stroke-width:4;stroke-linecap:round;stroke-linejoin:round;stroke-miterlimit:10;}
</style>
<g id="OBJECTS">
	<path class="st0" d="M68.88,342.86c56.94,77.08,115.23,17.6,184.17,17.6c59.41,0,134.78,50.16,179.53-18.32
		c44.75-68.47-17.99-232.55-179.53-230.27C84.16,114.25,21.04,278.1,68.88,342.86z"/>
	<g>
		<g>
			
				<rect x="261.55" y="404.62" transform="matrix(0.866 -0.5 0.5 0.866 -167.4762 200.3028)" class="st1" width="56.97" height="16.09"/>
			<g>
				<path class="st1" d="M172.53,152.18l-55.52-51.54c-4.66-4.32-12.1-0.03-10.68,6.17l16.87,73.85c0,0,17.73,21.02,38.2,9.2
					C181.88,178.05,172.53,152.18,172.53,152.18z"/>
				<path class="st2" d="M121.33,120.46c3.49-2.02,6.56-4.48,9.24-7.23l-13.55-12.58c-4.66-4.32-12.1-0.03-10.68,6.17l4.12,18.03
					C114.17,123.9,117.83,122.48,121.33,120.46z"/>
				<path class="st3" d="M121.33,120.46c3.49-2.02,6.56-4.48,9.24-7.23l-13.55-12.58c-4.66-4.32-12.1-0.03-10.68,6.17l4.12,18.03
					C114.17,123.9,117.83,122.48,121.33,120.46z"/>
				<path class="st3" d="M172.53,152.18l-55.52-51.54c-4.66-4.32-12.1-0.03-10.68,6.17l16.87,73.85c0,0,17.73,21.02,38.2,9.2
					C181.88,178.05,172.53,152.18,172.53,152.18z"/>
			</g>
			<g>
				<path class="st1" d="M265.36,426.91l12.8,22.17c3.75,6.49,12.05,8.72,18.55,4.97l25.82-14.91c6.49-3.75,8.72-12.05,4.97-18.55
					l-12.8-22.17L265.36,426.91z"/>
				<path class="st3" d="M265.36,426.91l12.8,22.17c3.75,6.49,12.05,8.72,18.55,4.97l25.82-14.91c6.49-3.75,8.72-12.05,4.97-18.55
					l-12.8-22.17L265.36,426.91z"/>
			</g>
			<path class="st1" d="M164.34,168.2c-8.84,5.1-16.47-1.78-16.47-1.78s2.14,10.05-6.7,15.15c-8.84,5.1-17.97-0.91-17.97-0.91
				l138.15,239.27l29.43-6l19.91-22.48L172.53,152.18C172.53,152.18,173.18,163.1,164.34,168.2z"/>
			<path class="st2" d="M200.17,313.99l41.95,72.67c7.08-7.75,12.1-14.69,12.1-14.69l-9.7-95.09l-30.06-52.07
				C210.9,240.57,204.32,273.11,200.17,313.99z"/>
			<g>
				<path class="st3" d="M310.68,391.46L172.53,152.18c0,0,0.64,10.91-8.2,16.02c-8.84,5.1-16.47-1.78-16.47-1.78l142.9,247.51
					L310.68,391.46z"/>
				<path class="st3" d="M164.34,168.2c-8.84,5.1-16.47-1.78-16.47-1.78s2.14,10.05-6.7,15.15c-8.84,5.1-17.97-0.91-17.97-0.91
					l138.15,239.27l29.43-6l19.91-22.48L172.53,152.18C172.53,152.18,173.18,163.1,164.34,168.2z"/>
			</g>
			<g>
				
					<rect x="261.55" y="404.62" transform="matrix(0.866 -0.5 0.5 0.866 -167.4762 200.3028)" class="st3" width="56.97" height="16.09"/>
			</g>
		</g>
		<g>
			<g>
				<path class="st1" d="M341.9,174.53c-8.27-33.93,13.75-50.95,37.11-56.75c23.36-5.81,26.97-14.6,26.97-14.6
					s14.12,71.66-39.76,87.26l-18.79,2.18L341.9,174.53z"/>
				<path class="st2" d="M355.31,183.31l-7.61,9.28l18.52-2.15c53.89-15.61,39.76-87.26,39.76-87.26S396.08,157.15,355.31,183.31z"
					/>
				<path class="st3" d="M372.29,139.85c0,0-23.11,12.17-24.99,38.22"/>
				<path class="st3" d="M405.98,103.18c0,0-9.9,53.97-50.67,80.13"/>
				<path class="st3" d="M342,174.66c-8.39-33.9,13.57-51,36.91-56.89c23.34-5.89,26.92-14.7,26.92-14.7s14.38,71.6-39.45,87.41
					l-18.78,2.25L342,174.66z"/>
			</g>
			<g>
				<path class="st1" d="M354.06,182.49l12.16,7.95c-43.85,98.66-169.11,273.58-188.13,261.14c-19.01-12.43,91-197.33,163.81-277.05
					L354.06,182.49z"/>
				<path class="st3" d="M313.87,207.94c0,0,2.19,7.16,13.87,14.8c11.68,7.64,19.12,6.77,19.12,6.77"/>
				<path class="st3" d="M327.35,191.24c0,0,1.53,4.25,13.2,11.89c11.68,7.64,15.78,8.14,15.78,8.14"/>
				<path class="st3" d="M354.06,182.49l12.16,7.95c-43.85,98.66-169.11,273.58-188.13,261.14c-19.01-12.43,91-197.33,163.81-277.05
					L354.06,182.49z"/>
				<path class="st2" d="M286.66,244.43c-12.37,17.35-24.69,35.63-36.38,53.85c-3.79,38.42-7.68,78.14-7.99,82.05
					c-0.09,1.2,1.27,3.13,3.64,5.26c16.68-21.96,34.62-47.57,51.82-73.99C294.77,280.33,289.88,257.23,286.66,244.43z"/>
			</g>
		</g>
		<g>
			<path class="st1" d="M263.74,160.49c0,0-3.37-23.18,16.56-27.68l-18.64-61.76c0,0,10.07-9.57,1.82-17.47
				c-6.14-5.88-15.37,2.85-15.37,2.85s-9.23-8.74-15.37-2.85c-8.25,7.9,1.82,17.47,1.82,17.47l-18.64,61.76
				c19.94,4.5,16.56,27.68,16.56,27.68l15.63,0L263.74,160.49z"/>
			<circle class="st3" cx="248.11" cy="127.95" r="9.51"/>
			<line class="st3" x1="248.11" y1="56.44" x2="248.11" y2="118.44"/>
			<g>
				<path class="st1" d="M263.74,160.49h-15.63h-15.63c-28.89,185.79-17.64,297.38,15.63,297.38
					C281.38,457.87,292.62,346.27,263.74,160.49z"/>
				<path class="st3" d="M263.74,160.49h-15.63h-15.63c-28.89,185.79-17.64,297.38,15.63,297.38
					C281.38,457.87,292.62,346.27,263.74,160.49z"/>
				<path class="st2" d="M227.72,437.89c5.26,13.13,12.15,19.98,20.39,19.98c15.44,0,26.14-24.06,30.28-68.4
					C271.42,406.39,257.03,427.67,227.72,437.89z"/>
			</g>
			<path class="st3" d="M263.74,160.49c0,0-3.37-23.18,16.56-27.68l-18.64-61.76c0,0,10.07-9.57,1.82-17.47
				c-6.14-5.88-15.37,2.85-15.37,2.85s-9.23-8.74-15.37-2.85c-8.25,7.9,1.82,17.47,1.82,17.47l-18.64,61.76
				c19.94,4.5,16.56,27.68,16.56,27.68l15.63,0L263.74,160.49z"/>
		</g>
		<path class="st3" d="M101.06,178.07c-11.21,22.25-17.53,47.38-17.53,73.99c0,61.86,34.12,115.76,84.57,143.88"/>
		<path class="st3" d="M213.11,91.18c-18.44,4-35.73,11.09-51.29,20.69"/>
		<path class="st3" d="M344.32,118.43c-16.88-12.17-36.16-21.22-56.99-26.3"/>
		<path class="st3" d="M338.82,389.49c44.56-29.46,73.96-80.01,73.96-137.43c0-19.78-3.49-38.75-9.88-56.32"/>
		<g>
			<path class="st3" d="M196.65,342.86c-11.79-1.72-23.39-4.04-34.76-6.94"/>
			<circle class="st3" cx="150.11" cy="332.68" r="12.23"/>
		</g>
		<g>
			<path class="st3" d="M334.32,335.92c-9.85,2.51-19.87,4.59-30.04,6.22"/>
			<circle class="st3" cx="346.11" cy="332.68" r="12.23"/>
		</g>
		<line class="st3" x1="75.21" y1="137.47" x2="93.11" y2="139.85"/>
		<line class="st3" x1="153.68" y1="73.29" x2="142.05" y2="87.11"/>
		<line class="st3" x1="378.3" y1="78.39" x2="382.99" y2="95.83"/>
		<line class="st3" x1="423.61" y1="159.96" x2="441.56" y2="157.95"/>
		<line class="st3" x1="423.36" y1="70.08" x2="416.31" y2="86.71"/>
		<line class="st3" x1="125.33" y1="62.17" x2="126.31" y2="80.2"/>
	</g>
</g>
<g id="TEXTS">
</g>
</svg>
