<svg width="242" height="73" viewBox="0 0 242 73" fill="none" xmlns="http://www.w3.org/2000/svg">
<g clip-path="url(#clip0_0_39)">
<path d="M225.603 52.2251H114.752V72.9999H225.603V52.2251Z" fill="#7D3E00"/>
<path d="M109.161 52.2251H39.0759V72.9999H109.161V52.2251Z" fill="#7D3E00"/>
<path d="M57.6177 57.2637C57.6177 57.2637 57.612 57.2637 57.6062 57.2637C57.6177 57.2808 57.6177 57.2808 57.6177 57.2637Z" fill="#EB5B25"/>
<path d="M77.1526 62.0417C76.2825 63.1337 74.4974 63.4441 73.0772 63.4718C71.7075 63.5494 69.5519 63.9873 69.6304 65.8885C69.7371 67.4738 71.0226 68.405 72.8133 68.4327C73.7845 68.2498 75.6257 68.0946 76.2825 66.8197C77.0179 65.9329 77.0179 65.1846 76.9954 64.1702C77.2817 63.9873 77.1245 62.0417 77.1526 62.0417Z" fill="#EB5B25"/>
<path d="M85.0958 52.2251H39.0535V72.9999H109.167V52.2251H85.0958ZM61.5862 56.8479C60.7161 56.9532 60.3232 56.87 60.2446 56.7204C60.1155 57.2636 59.5373 58.3555 59.3015 58.8489C59.6664 58.871 55.6471 68.1997 55.4619 68.7928C55.17 69.336 54.1483 70.6885 53.0424 70.428C52.3856 70.2728 51.7794 68.9757 51.4369 68.3993C50.8868 68.3993 47.1482 58.1394 47.7545 58.3223C47.6478 57.7514 46.9405 56.8645 46.4409 56.9199C45.4922 56.216 45.5483 56.3989 45.2284 57.2303C44.493 56.6871 44.493 56.737 43.9934 55.7227C44.6502 55.4622 44.9421 54.7859 45.4641 55.1019C46.3062 54.6861 46.8844 55.3845 48.6189 55.2848C49.3543 55.3901 49.9325 55.2626 51.3808 55.1795C52.4586 54.8413 51.9871 55.3125 52.0376 56.2437C52.1162 56.9975 51.9085 56.5818 51.4089 57.2026C50.724 57.0973 50.5388 56.7093 50.1178 56.4211C49.2757 56.3712 49.8034 57.125 49.3319 57.4354C50.0672 57.5629 50.1739 57.2525 50.3591 58.0063C50.3311 57.6959 50.5163 58.6826 50.3311 58.5773C50.0729 59.0983 53.1435 67.4293 53.1435 67.7951C53.3568 67.6621 57.1684 59.2258 57.247 58.677C57.4547 58.1061 56.9887 57.5906 57.6062 57.2525C57.5445 57.1638 57.2021 56.4543 56.5902 56.5486C56.6968 56.5486 56.826 57.0696 55.9839 57.4299C54.8837 56.6262 55.0633 56.9088 55.2205 55.5896C54.4065 55.0464 55.1924 55.4067 55.591 55.0963C56.826 54.8358 57.275 55.4843 58.5886 55.5896C59.5092 55.2016 60.8733 55.5619 61.5862 55.0132C62.0073 55.3014 62.0858 55.8446 62.664 56.288C62.984 56.9088 62.2206 57.3523 61.5862 56.8312V56.8479ZM83.5184 66.0435C83.3331 67.3406 83.6194 68.6931 83.3836 69.3416C82.7774 69.9125 81.3572 70.2007 79.8864 70.173C78.6514 70.6442 77.9946 69.6021 77.7308 68.4603C76.6811 69.4192 74.155 70.6442 72.1846 69.9624C71.4717 70.2506 70.523 69.6021 69.1589 68.9259C67.5029 68.2773 67.0033 67.4736 67.1605 65.4948C66.9472 64.6357 67.9183 63.3663 69.2375 62.1469C70.0234 61.4984 71.4717 61.7811 73.5768 61.0827C75.1542 61.2933 76.8663 61.4707 77.5512 59.0817C77.1077 56.8756 75.4742 56.8978 74.3402 56.8202C73.2063 56.1716 72.6281 56.9532 71.9994 57.3135C71.3145 57.5186 71.0507 57.0807 70.5006 57.962C71.2359 57.7569 71.2135 57.9121 71.5222 59.1094C71.7075 59.7579 71.1012 60.7722 70.1301 60.5117C69.0242 60.7224 67.9745 59.6027 68.053 58.7214C67.9745 57.1915 69.3161 56.2548 70.3658 55.889C70.7083 55.0852 72.4204 54.797 73.5992 54.3314C75.1542 54.3813 77.1751 54.5642 77.5736 55.3457C79.2296 56.7481 79.8078 58.5662 80.0211 59.8133C79.892 59.6803 79.7854 64.9017 79.6001 65.2897C79.4429 66.2265 78.7076 68.4603 80.5207 68.8205C82.0196 68.4048 81.4133 67.0302 81.2842 65.7553C81.7052 64.6135 81.6771 63.9871 82.4686 64.0924C83.4173 64.0148 83.8103 65.5724 83.524 66.038L83.5184 66.0435ZM90.1985 65.9881C90.6476 65.9105 90.9619 58.7158 90.4118 58.9764C90.99 58.1948 90.1985 56.482 89.9347 56.8479C89.5698 56.4322 89.014 56.482 88.0934 56.4322C87.3861 56.9255 87.0437 56.7703 87.1447 55.4954C87.4366 55.5453 87.8015 54.7416 88.8568 55.1351C89.5136 55.0021 89.828 54.797 90.4062 55.1351C90.249 54.8746 91.1416 54.5088 91.2987 54.5864C93.0614 54.5088 92.8481 55.6229 92.3485 56.5098C92.7695 55.8612 92.7976 57.0031 92.9267 56.4876C93.9764 55.5231 96.1096 54.6196 97.2379 54.7748C98.63 54.5919 100.471 55.4511 101.442 55.9943C102.969 57.4243 103.048 58.3334 102.548 60.1237C103.155 60.6669 102.919 65.3673 102.655 66.0934C102.919 66.7974 103.312 68.5101 103.548 68.5323C103.839 68.2219 104.76 68.3771 105.26 67.6233C105.81 68.2219 105.995 68.1665 106.158 69.2085C105.765 69.8293 105.686 70.2229 105.181 70.2451C104.468 70.112 102.526 69.4635 101.976 70.0622C101.055 69.6243 99.6854 69.5688 98.3437 70.04C97.9227 70.1453 97.8722 70.04 97.3726 69.336C97.9003 68.3272 97.4007 67.8838 98.3213 67.518C99.0567 68.2995 99.6349 67.8284 99.5843 67.9614C100.769 68.6099 100.741 66.6588 101.139 65.8828C100.847 65.5724 100.533 61.4152 100.454 61.4928C100.348 60.0406 101.162 59.3366 100.269 58.0119C99.8762 56.7647 99.0061 56.4266 97.1649 56.4044C95.6941 55.9666 94.2459 56.8202 94.0382 58.4553C92.9323 59.2313 92.5899 61.2877 92.5113 62.4795C92.2755 62.1691 92.4832 66.038 92.5899 66.038C92.6404 66.2985 92.0622 68.1166 93.0109 68.3993C93.6396 68.1665 94.9812 67.8006 95.4865 67.7785C95.565 67.4902 95.7727 68.3993 96.1938 68.6875C96.2443 69.4413 95.0374 69.7019 95.1665 69.7019C93.1681 69.8349 92.5113 69.264 91.1416 69.6021C90.8553 70.04 89.5642 69.9125 88.2787 69.4968C88.3853 69.6021 87.2794 69.7296 86.9875 68.876C87.3019 68.0445 87.4086 67.396 88.1439 67.396C89.014 67.8672 89.1937 67.6842 89.1937 68.3605C90.2434 67.9725 90.2995 66.2043 90.1929 65.9992L90.1985 65.9881Z" fill="#EB5B25"/>
<path d="M127.371 62.7178C127.001 62.6181 125.165 62.4296 125.401 62.873C122.875 62.4573 122.667 62.6901 122.718 65.0292C122.852 64.874 122.667 67.651 123.032 67.651C122.718 67.9891 122.796 69.519 123.139 69.9901C124.188 71.0045 126.529 70.6664 127.5 70.7717C128.634 70.877 130.212 70.4613 131.632 69.6298C132.367 69.0035 133.209 67.6787 132.817 66.3595C133.209 63.0338 129.841 62.7234 127.371 62.7234V62.7178Z" fill="#EB5B25"/>
<path d="M118.39 71.2429C118.39 71.2429 118.35 71.254 118.322 71.2595C118.35 71.2595 118.373 71.2485 118.39 71.2429Z" fill="#EB5B25"/>
<path d="M122.718 55.235C122.718 55.7283 123.139 57.2637 123.139 57.4411C122.875 60.8444 122.925 60.9719 126.086 60.8943C128.505 60.6061 132.031 60.4509 132.238 57.3136C132.16 54.4534 129.555 54.3814 127.613 54.4036C126.271 54.0876 124.795 54.326 123.717 54.3537C123.453 54.7694 122.875 54.7694 122.718 55.235Z" fill="#EB5B25"/>
<path d="M169.507 56.6928C166.902 56.6928 164.982 58.3501 164.718 60.717C164.999 60.7114 173.335 60.9276 173.133 61.0052C173.447 58.6938 171.926 56.6706 169.507 56.6928Z" fill="#EB5B25"/>
<path d="M164.37 62.8787C164.37 62.8787 164.37 62.8565 164.37 62.8455C164.353 62.8565 164.353 62.8676 164.37 62.8787Z" fill="#EB5B25"/>
<path d="M193.752 52.2251H192.775C193.039 52.5355 193.224 52.6408 193.752 52.2251Z" fill="#EB5B25"/>
<path d="M182.996 65.7831C182.889 60.7723 184.944 57.1085 189.205 57.3967C190.883 57.4743 193.168 57.2526 193.847 59.248C193.735 58.6993 194.066 56.4378 193.729 56.4655C193.6 56.0221 194.257 54.0488 193.151 53.5832C192.78 54.0987 192.337 54.4922 191.759 54.337C190.602 54.4146 190.181 53.7107 190.367 53.8659C190.423 53.4224 190.995 52.6187 191.708 52.2307H128.039C129.931 52.9014 130.908 53.1342 132.014 52.7739C134.169 54.459 134.091 55.5232 135.011 56.7482C134.27 59.7635 133.17 61.3432 130.616 61.9142C133.485 62.6181 135.505 63.7322 135.876 67.0303C135.376 68.4603 134.77 70.5389 133.563 71.0045C131.514 72.6674 130.066 72.745 127.776 72.1464C127.147 72.3293 124.228 71.8637 121.966 72.745C120.652 72.4069 117.991 72.0688 117.52 72.2517C117.548 72.8226 116.784 72.2794 116.913 71.0599C116.627 70.5943 116.543 70.7218 117.334 71.1874C117.508 70.5334 118.625 71.1265 118.395 71.2484C119.72 70.9047 120.405 70.1731 120.012 70.0456C121.011 68.876 119.883 67.3739 120.933 66.1268C120.747 65.5281 120.433 58.9875 120.747 58.339C120.877 57.4854 120.955 56.0276 119.956 54.8858C120.063 54.0543 119.484 53.8492 118.35 54.5199C118.143 54.7804 118.249 53.949 117.245 54.7527C116.852 54.2095 115.88 54.5698 116.116 53.8991C115.959 53.0178 117.587 51.9259 117.957 52.6741C118.457 52.1032 120.534 52.1309 121.376 52.5965C123.139 52.7573 124.767 52.4413 126.03 52.2363H114.747V73.011H187.279C184.31 71.6087 183.075 68.3883 182.99 65.7942L182.996 65.7831ZM152.621 62.535C151.779 62.0416 150.836 61.8366 151.543 60.7169C151.571 60.3788 151.936 59.3921 152.784 60.0684C152.228 59.6527 152.885 59.8855 152.834 60.0185C152.935 59.9132 153.093 59.6804 152.885 59.2369C152.672 57.9621 151.358 57.3413 150.258 57.0031C146.94 56.4821 146.626 60.9497 146.968 64.2754C146.654 63.4717 146.283 66.1434 146.469 66.6921C146.996 66.6644 146.177 68.3827 147.676 68.4049C148.254 68.4326 148.624 68.8982 148.967 68.8206C149.466 68.3051 150.336 69.1864 149.887 69.8848C149.68 70.4558 149.652 70.4003 148.546 71.0544C147.546 70.8493 146.918 70.3505 145.997 70.1454C144.156 70.0678 143.213 70.7163 142.449 70.611C141.793 70.8438 141.237 70.1675 141.029 69.3915C141.344 68.6654 141.214 68.1167 142.292 68.8705C143.028 68.61 142.713 68.6876 143.263 69.1033C144.369 68.8151 144.004 66.8196 144.605 65.9106C144.526 65.6778 144.583 60.146 144.369 59.7801C144.448 58.9986 144.998 57.7293 143.892 57.1584C143.421 57.0031 142.371 57.8346 142.343 57.2858C141.714 57.7293 140.608 57.053 140.816 56.6373C140.838 55.9389 141.658 55.235 142.421 55.6507C142.764 55.3403 143.342 55.6507 143.87 55.9611C144.74 55.8558 144.897 55.3624 145.66 55.2848C145.975 55.1574 146.502 56.3768 146.766 56.4544C146.581 56.8978 146.53 57.2581 146.817 56.8424C147.558 56.0387 148.529 54.9744 150.87 55.3624C152.812 55.5454 154.945 56.8701 155.63 59.3644C155.686 61.055 154.844 62.1691 152.632 62.5294L152.621 62.535ZM175.659 61.8864C175.552 63.5493 175.423 63.2888 174.374 63.056C174.576 62.9063 164.73 63.1391 164.376 62.8842C164.151 65.6002 165.235 68.6377 168.429 68.5379C170.691 68.4382 172.426 67.7841 172.661 66.3318C173.453 65.4006 173.633 64.6468 173.79 64.3087C174.868 64.3586 175.261 65.4782 175.075 66.2321C175.367 67.0857 173.919 68.4382 173.706 69.3472C171.814 69.9458 170.5 70.2562 168.839 70.3615C163.708 70.2839 161.872 66.5203 161.872 62.9063C162.001 60.8 162.871 58.8822 163.871 57.2969C164.735 55.3735 167.132 54.5476 169.265 55.0132C173.419 54.6474 175.917 58.1782 175.653 61.8975L175.659 61.8864Z" fill="#EB5B25"/>
<path d="M194.857 52.2251H193.993C194.122 52.6131 194.515 52.4856 194.857 52.2251Z" fill="#EB5B25"/>
<path d="M193.847 59.2424C193.858 59.2868 193.869 59.32 193.886 59.3422C193.875 59.3089 193.858 59.2757 193.847 59.2424Z" fill="#EB5B25"/>
<path d="M193.937 68.948C194.229 67.651 194.229 65.9881 194.279 64.9738C193.965 63.5714 193.808 61.7035 192.91 60.5838C192.067 59.4919 191.225 59.054 189.598 59.2868C185.994 59.8078 185.337 62.8176 185.309 65.2842C185.494 68.2164 186.78 71.592 190.383 70.9435C191.725 71.204 192.853 70.1121 193.931 68.9425L193.937 68.948Z" fill="#EB5B25"/>
<path d="M214.634 62.0417C213.769 63.1337 211.979 63.4441 210.559 63.4718C209.189 63.5494 207.033 63.9873 207.112 65.8885C207.213 67.4738 208.504 68.405 210.295 68.4327C211.266 68.2498 213.107 68.0946 213.769 66.8197C214.505 65.9329 214.505 65.1846 214.477 64.1702C214.769 63.9873 214.612 62.0417 214.634 62.0417Z" fill="#EB5B25"/>
<path d="M201.773 52.2251H195.542C195.728 52.5854 195.829 52.8736 196.3 53.5221C195.851 53.6496 196.457 67.9337 196.693 68.6099C196.193 68.4769 196.143 71.3869 197.956 70.3504C197.642 70.6608 198.349 70.3781 198.377 70.5555C199.27 70.0344 199.691 70.7661 200.084 70.8714C199.719 71.9634 199.242 72.95 199.084 72.5066C198.226 72.2461 197.754 72.4068 197.642 72.4567C197.653 72.4511 197.664 72.4401 197.687 72.4234C197.159 72.1352 196.401 73.0997 195.716 72.2183C194.425 72.0631 194.874 71.5144 194.189 71.2317C194.189 71.2317 194.171 71.2225 194.133 71.204C194.133 71.204 194.161 71.204 194.189 71.2317C194.189 71.204 194.212 71.1541 194.24 71.1042C193.426 71.8026 192.612 72.4789 191.77 72.9999H225.597V52.2251H201.768H201.773ZM220.994 66.038C220.809 67.335 221.101 68.6875 220.865 69.336C220.259 69.9069 218.839 70.1952 217.368 70.1675C216.133 70.6386 215.476 69.5965 215.212 68.4547C214.162 69.4136 211.636 70.6386 209.666 69.9568C208.953 70.2451 208.01 69.5965 206.64 68.9203C204.984 68.2718 204.485 67.4681 204.642 65.4893C204.434 64.6301 205.405 63.3608 206.719 62.1413C207.51 61.4928 208.953 61.7755 211.058 61.0771C212.636 61.2877 214.348 61.4651 215.027 59.0761C214.583 56.87 212.95 56.8922 211.822 56.8146C210.688 56.1661 210.109 56.9476 209.481 57.3079C208.796 57.513 208.532 57.0751 207.982 57.9565C208.717 57.7514 208.689 57.9066 209.009 59.1038C209.194 59.7524 208.588 60.7667 207.617 60.5062C206.511 60.7168 205.461 59.5972 205.54 58.7158C205.461 57.186 206.803 56.2492 207.853 55.8834C208.195 55.0797 209.902 54.7915 211.086 54.3259C212.636 54.3757 214.662 54.5587 215.061 55.3402C216.717 56.7426 217.295 58.5606 217.508 59.8078C217.379 59.6748 217.272 64.8962 217.087 65.2842C216.93 66.2209 216.195 68.4547 218.008 68.815C219.507 68.3993 218.9 67.0246 218.771 65.7498C219.192 64.6079 219.164 63.9816 219.956 64.0869C220.904 64.0093 221.297 65.5669 221.005 66.0325L220.994 66.038Z" fill="#EB5B25"/>
<path d="M239.855 0.0143482L67.9685 8.90918L70.1105 49.2671L241.997 40.3722L239.855 0.0143482Z" fill="#EB5B25"/>
<path d="M61.3494 9.25108L0.038147 12.4238L2.18017 52.7817L63.4914 49.609L61.3494 9.25108Z" fill="#EB5B25"/>
<path d="M63.5173 49.6035L61.3729 9.24561L25.5416 11.1025L0 12.4272L2.14437 52.7851L24.3347 51.6322L63.5173 49.6035ZM30.7847 22.0608C31.7614 20.1928 32.3733 21.0686 33.0582 21.4899C36.0839 21.5841 36.3477 21.6728 35.1913 19.2561C35.8649 19.4224 35.4664 14.8439 36.2298 13.6855C35.82 12.6933 36.1961 11.108 37.3582 11.7565C39.1994 11.7122 40.0021 13.3363 40.4007 14.9881C40.0751 13.691 40.5523 19.7882 39.9348 18.7572C39.8113 21.2959 39.873 20.4312 42.169 21.2737C42.1241 21.4289 47.0191 21.8834 47.3727 19.9434C47.8779 21.7393 49.4778 20.9966 49.3599 22.5763C50.0335 23.707 48.7761 25.0817 47.311 25.514C46.4745 24.2447 41.4504 25.1094 41.2203 24.666C39.5362 25.769 40.3109 24.8655 40.6028 27.5316C40.44 27.3376 40.6926 40.7293 40.5916 39.8757C40.2154 42.3755 40.5298 46.4052 44.4424 46.8098C47.9958 45.2079 48.8491 42.9908 48.4954 41.1339C49.0736 41.0563 48.8435 38.7283 48.7929 38.8059C48.894 38.1685 48.6077 34.5434 50.8924 36.1065C52.4361 36.2284 52.4923 37.2871 52.728 38.7948C53.4578 44.8809 52.5709 49.3762 44.1337 50.5679C41.282 49.9083 38.6324 49.2321 37.1392 48.1457C36.4881 45.5516 35.7807 41.8434 36.1007 40.2082C36.7687 39.2161 35.9042 27.8254 36.3982 27.4485C35.3148 25.3754 36.3477 24.5163 34.2932 25.381C31.812 23.9953 30.2346 24.1782 30.8184 22.6262C30.5545 23.4521 30.431 21.1296 30.7903 22.0719L30.7847 22.0608ZM18.637 26.5893C18.2384 27.8254 16.8294 30.1756 15.6562 30.2809C14.9152 29.7654 14.6514 29.7266 14.3931 28.7289C14.4212 28.2744 15.0275 28.1414 15.0106 26.8776C15.8863 25.9741 17.7725 22.8922 17.5816 21.2349C17.75 19.6053 16.6049 20.2704 16.2568 20.3868C13.9777 19.9489 12.2488 19.2284 12.4958 17.0944C11.9681 13.9848 14.0002 12.6157 16.4926 12.2831C19.1534 12.2443 21.0452 15.9913 21.1575 18.1641C21.1631 21.1961 20.074 23.7846 18.637 26.5893Z" fill="#7D3E00"/>
<path d="M140.614 24.2612C139.042 26.4673 135.595 27.2544 132.845 27.4429C130.195 27.7311 126.052 28.8064 126.4 32.4813C126.771 35.5466 129.37 37.2372 132.845 37.1041C134.714 36.6552 138.279 36.1618 139.418 33.6287C140.76 31.8384 140.681 30.375 140.524 28.4129C141.068 28.0304 140.558 24.2612 140.614 24.2612Z" fill="#7D3E00"/>
<path d="M196.424 42.7191L242 40.3579L239.856 0L198.405 2.15065L155.029 4.39552L114.528 6.49628L105.271 6.97851C108.779 8.41412 111.496 6.55171 113.489 7.4164C113.579 7.31109 114.034 7.11154 114.561 7.18914L114.662 9.11807C113.657 9.61693 112.844 10.1768 112.282 11.7787C111.648 11.3574 111.457 9.74996 109.773 9.88299C108.162 10.3708 109.206 11.7343 106.517 12.2276C106.41 15.0157 108.588 17.4823 107.28 18.8625C108.925 19.9434 107.303 32.8251 108.521 34.4824C108.807 36.0344 107.752 38.368 108.521 41.1616C110.458 40.962 109.784 42.7136 110.817 42.0041C112.321 41.4221 114.797 41.7491 114.791 42.6027C115.375 41.9708 115.746 42.2036 116.049 45.0693C116.099 45.0693 115.869 46.4939 115.252 45.4684C111.182 45.1248 110.435 46.4772 106.657 46.6213C104.199 44.7257 99.8425 46.5714 99.5001 45.9285C96.9852 46.8153 97.2098 46.2001 95.9748 44.188C97.3726 43.5617 96.0871 42.4087 98.3213 42.0429C98.0013 42.769 100.701 42.4254 99.8931 42.6693C102.15 43.7169 104.356 42.7413 102.964 41.5995C103.171 39.7204 104.462 35.0976 103.794 33.1077C103.211 34.6099 103.957 28.4462 104.008 26.5228C102.105 28.291 85.6459 28.0304 84.1246 28.363C84.6186 28.945 86.0444 33.6731 85.6964 34.8094C85.3989 34.9757 84.7814 40.7736 85.2754 41.35C84.933 42.5861 87.0773 44.4485 88.9916 42.8799C89.4294 42.4531 91.0798 43.6337 90.5858 41.9875C91.1415 41.8544 92.9547 44.1381 93.7518 44.709C93.5161 45.9894 91.9611 45.6624 90.6756 47.547C89.5585 47.7576 86.5665 47.3585 81.8455 46.189C80.8631 45.9839 76.333 48.4948 75.6874 47.9738C75.2945 48.2953 73.6048 48.0902 70.0234 47.1923L70.1356 49.2764L116.767 46.8597L158.661 44.6869L196.429 42.7302L196.424 42.7191ZM205.501 13.0092C206.477 11.1412 207.089 12.017 207.774 12.4327C210.8 12.527 211.058 12.6156 209.907 10.1989C210.581 10.3652 210.188 5.78125 210.946 4.62832C210.536 3.63614 210.907 2.05087 212.074 2.69939C213.915 2.65505 214.718 4.28466 215.111 5.9309C214.786 4.63386 215.263 10.7255 214.645 9.69453C214.527 12.2332 214.583 11.3685 216.879 12.211C216.834 12.3662 221.729 12.8207 222.083 10.8807C222.588 12.6766 224.188 11.9339 224.07 13.508C224.744 14.6388 223.487 16.0134 222.021 16.4458C221.185 15.1765 216.161 16.0412 215.931 15.5977C214.247 16.7008 215.021 15.7973 215.319 18.4634C215.15 18.2694 215.403 31.6666 215.308 30.8074C214.931 33.3073 215.246 37.337 219.164 37.7416C222.712 36.1397 223.571 33.9226 223.217 32.0712C223.795 31.9936 223.565 29.649 223.515 29.7377C223.616 29.1058 223.329 25.4752 225.62 27.0383C227.163 27.1602 227.22 28.2189 227.45 29.7266C228.185 35.8071 227.292 40.308 218.855 41.5052C216.004 40.8456 213.354 40.1694 211.861 39.083C211.21 36.4889 210.502 32.7807 210.828 31.1456C211.49 30.1534 210.632 18.7627 211.125 18.3858C210.042 16.3128 211.075 15.4536 209.02 16.3183C206.539 14.9326 204.962 15.1155 205.546 13.5635C205.282 14.3894 205.158 12.0669 205.518 13.0092H205.501ZM153.469 37.8081C152.357 38.9777 149.623 39.6761 146.761 39.7703C144.408 40.8068 143.028 38.8557 142.393 36.6607C140.451 38.634 135.674 41.2614 131.772 40.1417C130.42 40.7736 128.517 39.604 125.788 38.4289C122.504 37.337 121.449 35.8238 121.55 31.977C121.056 30.3308 122.813 27.7644 125.238 25.259C126.703 23.9176 129.544 24.3278 133.557 22.7481C136.645 22.992 139.985 23.1749 141.063 18.4689C139.968 14.2231 136.802 14.4393 134.596 14.4005C132.334 13.2531 131.29 14.8217 130.1 15.5922C128.792 16.0633 128.236 15.2374 127.253 17.0056C128.662 16.5289 128.629 16.8338 129.364 19.123C129.785 20.3646 128.719 22.3933 126.799 21.9887C124.677 22.5042 122.516 20.4367 122.583 18.7128C122.269 15.7474 124.778 13.7963 126.788 12.9815C127.371 11.3851 130.661 10.6535 132.912 9.62802C135.932 9.57259 139.884 9.72225 140.732 11.1967C144.1 13.7519 145.408 17.2273 145.947 19.6274C145.677 19.3891 146.014 29.5381 145.694 30.3141C145.486 32.1433 144.285 36.5554 147.85 37.082C150.718 36.1231 149.399 33.5068 149.012 31.0569C149.708 28.7898 149.595 27.5815 151.139 27.709C152.975 27.4595 153.901 30.4527 153.385 31.3894C153.16 33.9281 153.862 36.5222 153.469 37.8081ZM187.762 22.7813C186.078 21.9055 184.22 21.6007 185.483 19.3614C185.5 18.7017 186.112 16.7506 187.818 17.9756C186.701 17.2218 188.003 17.6098 187.913 17.8648C188.11 17.6541 188.391 17.183 187.936 16.346C187.391 13.8961 184.775 12.8207 182.592 12.272C176.103 11.5957 175.951 20.3092 176.956 26.7279C176.26 25.1925 175.822 30.425 176.232 31.467C177.248 31.3617 175.844 34.7762 178.758 34.6764C179.886 34.6708 180.65 35.5411 181.306 35.3526C182.221 34.2939 184.001 35.9235 183.204 37.3259C182.856 38.4566 182.8 38.3624 180.717 39.7315C178.752 39.4267 177.472 38.5287 175.67 38.2183C172.083 38.2571 170.309 39.6096 168.816 39.4821C167.564 40.0031 166.425 38.7449 165.936 37.2594C166.47 35.8127 166.161 34.7651 168.333 36.1231C169.737 35.5411 169.131 35.724 170.248 36.4778C172.364 35.8127 171.443 31.9659 172.521 30.1367C172.347 29.6878 171.876 18.9401 171.426 18.2528C171.499 16.734 172.443 14.2065 170.236 13.2032C169.299 12.9482 167.345 14.6721 167.239 13.6134C166.06 14.5335 163.843 13.3362 164.207 12.5048C164.191 11.1412 165.701 9.69453 167.222 10.4262C167.856 9.78322 169.007 10.332 170.062 10.8863C171.741 10.5925 171.993 9.62248 173.464 9.39522C174.065 9.11253 175.21 11.4295 175.732 11.5514C175.423 12.4327 175.356 13.1422 175.878 12.3052C177.225 10.6645 179.005 8.50281 183.591 9.02384C187.391 9.17904 191.669 11.5348 193.252 16.3128C193.527 19.5886 192.011 21.839 187.751 22.7702L187.762 22.7813Z" fill="#7D3E00"/>
<path d="M97.9115 7.35547L95.9692 7.45524C96.0253 7.55501 96.0871 7.69913 96.0983 7.9541C96.6933 7.62153 97.3052 7.4885 97.9115 7.35547Z" fill="#7D3E00"/>
<path d="M100.758 7.21688C101.678 7.21688 103.581 7.84323 104.395 7.01733L100.758 7.21688Z" fill="#7D3E00"/>
<path d="M84.372 23.5802C84.372 23.5802 84.372 23.5688 84.372 23.5574C84.3547 23.5631 84.3547 23.5745 84.372 23.5802Z" fill="#7D3E00"/>
<path d="M78.4212 42.6637C77.9048 44.5594 78.6009 43.2069 80.8294 42.6415C79.5664 40.0752 78.8535 35.3582 79.0724 34.693C78.9377 34.0888 78.9994 20.7859 79.4373 21.3679C78.6402 19.838 78.1406 14.3506 79.0219 13.5468C79.499 12.8651 76.8831 10.9251 74.9296 10.7754C75.7211 11.1412 74.8061 11.2853 72.3361 11.1135C73.2062 12.078 71.2752 11.4184 71.438 9.6391C71.4941 9.68898 71.9264 9.20675 72.3586 8.68018L67.9576 8.90743L69.883 45.1247C73.5038 44.7367 73.8574 44.6148 74.8791 44.6093C75.519 44.1215 77.0796 43.6392 78.41 42.6582L78.4212 42.6637Z" fill="#7D3E00"/>
<path d="M89.8055 8.07593C90.9282 7.97061 90.6756 8.13136 90.5465 10.4649C91.8039 9.99377 91.8881 10.6478 88.6772 11.0192C88.8007 11.4183 88.3797 11.1356 86.3083 11.7509C85.2136 12.416 85.5336 11.6899 83.204 13.1754C83.9674 13.9957 85.3596 18.0199 83.5632 19.8878C84.7084 20.7248 84.3379 23.269 84.366 23.5628C84.9217 23.3522 104.165 24.3665 103.3 23.9231C104.058 22.7702 101.998 20.553 103.553 19.9655C104.058 18.8292 103.25 13.3528 102.352 13.8073C101.667 12.477 100.005 10.1878 98.5851 11.3241C99.0454 10.3374 97.3613 10.5259 96.9179 10.803C96.9066 11.6123 94.1336 11.4017 95.8738 8.58033C95.4022 8.40296 95.5201 7.73781 95.711 7.47729L76.2993 8.48056C78.2135 8.78542 80.5263 8.96834 82.0813 9.29537C85.107 9.29537 87.0661 8.58033 89.8055 8.08701V8.07593Z" fill="#7D3E00"/>
</g>
<defs>
<clipPath id="clip0_0_39">
<rect width="242" height="73" fill="white"/>
</clipPath>
</defs>
</svg>
